<!--?xml version="1.0" standalone="no"?-->
              <svg id="sw-js-blob-svg" viewBox="0 0 100 100" xmlns="http://www.w3.org/2000/svg" version="1.1">
                    <defs> 
                        <linearGradient id="sw-gradient" x1="0" x2="1" y1="1" y2="0">
                            <stop id="stop1" stop-color="rgba(248, 117, 55, 1)" offset="0%"></stop>
                            <stop id="stop2" stop-color="rgba(251, 168, 31, 1)" offset="100%"></stop>
                        </linearGradient>
                    </defs>
                <path fill="url(#sw-gradient)" d="M18.5,-32.3C23.9,-28.8,28.2,-23.8,31.5,-18.2C34.9,-12.5,37.2,-6.3,38.7,0.8C40.2,7.9,40.7,15.9,38,22.6C35.3,29.4,29.3,34.9,22.5,38.7C15.6,42.5,7.8,44.5,0.1,44.4C-7.7,44.3,-15.4,42.1,-22.5,38.5C-29.7,34.9,-36.2,29.8,-40.4,23.1C-44.6,16.5,-46.4,8.2,-44.9,0.8C-43.5,-6.6,-38.8,-13.1,-34.8,-20.1C-30.8,-27,-27.4,-34.3,-21.7,-37.6C-16,-40.9,-8,-40.2,-0.7,-39C6.5,-37.7,13,-35.8,18.5,-32.3Z" width="100%" height="100%" transform="translate(50 50)" style="transition: all 0.3s ease 0s;" stroke-width="0"></path>
              </svg>